<?xml version="1.0" encoding="UTF-8"?>
<svg id="_Слой_2" data-name="Слой 2" xmlns="http://www.w3.org/2000/svg" viewBox="0 0 85.78 37.76">
  <defs>
    <style>
      .cls-1 {
        fill: #bfbfbf;
        stroke-width: 0px;
      }
    </style>
  </defs>
  <g id="_Слой_1-2" data-name="Слой 1">
    <path class="cls-1" d="m47.85,37.62h1v-3.39l3.08,3.39h1.45l-3.53-3.65,3.27-3.27h-1.33l-3,3v-3h-.94v6.92Zm12-6.92h-1v3.92c0,1.33-.43,2.25-1.72,2.25s-1.7-.92-1.7-2.25v-3.92h-1v4.06c0,1.95,1,3,2.68,3s2.7-1,2.7-3v-4.06h.04Zm-4-.57h.92v-1h-.92v1Zm1.62,0h.94v-1h-.94v1Zm9,.75c-.51-.22-1.06-.32-1.62-.3-1.9-.12-3.54,1.33-3.66,3.23,0,.11,0,.21,0,.32-.12,1.88,1.3,3.5,3.18,3.62.16.01.32,0,.48,0,.53.01,1.07-.07,1.57-.25l-.06-1c-.47.24-.98.37-1.51.38-1.49-.11-2.62-1.41-2.51-2.9.1-1.37,1.21-2.45,2.58-2.51.5,0,1,.13,1.43.38v-1l.12.03Zm1.27,6.74h1v-3.16h3.33v3.17h1v-6.93h-1v2.9h-3.38v-2.9h-1v6.93h.05Zm7.17,0h3.88v-.87h-2.94v-2.29h2.64v-.86h-2.64v-2h2.9v-.88h-3.9v6.93l.06-.03Zm5.46,0h1v-5.74l3.14,5.7h1.27v-6.88h-1v5.58l-3.07-5.58h-1.37l.03,6.92Z"/>
    <path class="cls-1" d="m0,28.51h85.78v-3.88H0v3.88Z"/>
    <path class="cls-1" d="m41.78.12h8v22.45h-7.93l-.1-22.45h.03ZM61.2.01v7h5.05v4.87h-5.05v3.4c0,1.1,1.16,1.69,2.23,1.68,1.22-.15,2.36-.71,3.23-1.58v6.11s-3.63,1.88-5.66,2c-4.43.07-7.67-2.75-7.69-5.72l-.1-5.89h-2.73v-3.29L59.17.01h2.03Zm-30.44,16.65c-1.53.03-2.81-1.18-2.84-2.72,0-.02,0-.04,0-.06-.08-1.55,1.09-2.88,2.64-3,1.61.05,2.87,1.39,2.83,3,0,1.48-1.15,2.71-2.63,2.78Zm-.2-12.31c-5.56,0-10.66,3.44-10.43,9.55.22,5.72,5.31,9.54,11,9.27,5.38-.21,10.12-3.75,10-9.36-.09-6.64-5-9.48-10.61-9.46h.04Zm52.84-3c.35,0,.63,0,.63.35s-.49.33-.84.33h-.43v-.73l.64.05Zm.32,1c.33.03.62-.22.65-.55,0-.03,0-.06,0-.09,0-.55-.43-.7-.88-.7h-1v2.42h.31v-1.14h.53l.64,1.14h.42l-.67-1.08Zm-.43-2c1.05-.01,1.9.82,1.92,1.87-.02,1.04-.88,1.88-1.92,1.86,0,0,0,0,0,0-1.03-.01-1.87-.83-1.91-1.86.04-1.03.88-1.85,1.91-1.87Zm0,4c1.23.06,2.27-.9,2.33-2.13,0-.01,0-.03,0-.04-.03-1.23-1.05-2.21-2.28-2.18-.02,0-.04,0-.05,0-1.19-.03-2.18.9-2.22,2.09,0,.03,0,.06,0,.09-.01,1.19.94,2.16,2.13,2.17,0,0,0,0,0,0h.09Zm-8.94,7.88h5.16s-.31-2.87-2.53-2.86c-2.52.07-2.6,2.83-2.63,2.86Zm2.53-8c3,.08,5.18.72,7.19,3s1.64,7.76,1.61,7.78h-11.13s.62,2.82,4.65,2.76c2.73-.12,6.57-.82,6.58-.79v3.9s-4.28,2.46-7.93,2.48c-6.53,0-10.87-4-10.82-9.55,0-5.25,3.41-9.65,9.81-9.55l.04-.03ZM0,4.88v17.69h7.59v-9.06c.24-1.2,1.21-2.11,2.42-2.26,1.13,0,1.73,1,1.72,2.07v9.25h7.59v-11.69c0-2-1.29-5-3.64-5.91-1.59-.66-3.36-.73-5-.19-1.12.19-2.18.65-3.09,1.34v-1.24H0Z"/>
  </g>
</svg>
