<?xml version="1.0" encoding="UTF-8"?>
<svg id="_Слой_2" data-name="Слой 2" xmlns="http://www.w3.org/2000/svg" viewBox="0 0 311.34 57.06">
  <defs>
    <style>
      .cls-1 {
        fill: #bfbfbf;
        fill-rule: evenodd;
        stroke-width: 0px;
      }
    </style>
  </defs>
  <g id="svg5806">
    <path id="path3308" class="cls-1" d="m277.03,25.86v5.53h8.78v-5.53c0-2.37-1.98-4.35-4.35-4.35s-4.43,1.98-4.43,4.35m23.33-7.83h0c-11.94-5.93-24.44-6.33-36.7-1.11-10.12,4.27-14.86,15.98-10.52,26.1,2.22,5.22,5.93,8.85,11.23,10.83,12.1,4.58,24.04,4.27,35.82-1.11,5.14-2.29,8.7-6.09,10.6-11.39h-15.5c-1.74,5.54-7.67,8.7-13.28,6.96-.48-.16-.88-.32-1.43-.56-2.22-1.03-3.56-3.16-3.56-5.61v-3.95h34.16c1.03-8.46-3.17-16.3-10.83-20.17m-121.08,7.83h0c0-2.37-1.89-4.35-4.34-4.35s-4.35,1.98-4.35,4.35v5.53h8.69v-5.53Zm25.39,12.34h0c1.03-8.46-3.17-16.3-10.83-20.17-11.87-5.93-24.44-6.33-36.69-1.11-10.13,4.27-14.79,15.98-10.52,26.1,2.22,5.22,6.01,8.85,11.31,10.83,12.02,4.58,24.04,4.27,35.83-1.11,5.06-2.29,8.62-6.09,10.52-11.39h-15.5c-1.66,5.54-7.59,8.7-13.21,6.96-.47-.16-.95-.32-1.42-.56-2.22-1.03-3.56-3.16-3.56-5.61v-3.95h34.08Zm8.85,8.22V10.92h-6.16V2.22h35.43v44.21h6.24v8.7h-41.68v-8.7h6.16ZM118.54,14.31l12.74-6.64-4.04-7.67-12.73,6.56,4.03,7.75Zm17.8,32.11V15.34h-34.24v8.7h6.24v22.38h-6.24v8.7h40.49v-8.7h-6.24ZM50.37,22.86l14.95-20.64h31.16v8.7h-6.25v35.51h6.25v8.7h-40.49v-8.7h6.25v-23.01l-23.01,31.71-23.09-31.71v23.01h6.25v8.7H0v-8.7h6.17V10.92H0V2.22h35.35l15.02,20.64Z"/>
  </g>
</svg>
