<?xml version="1.0" encoding="UTF-8"?>
<svg id="_Слой_2" data-name="Слой 2" xmlns="http://www.w3.org/2000/svg" viewBox="0 0 312.84 66.53">
  <defs>
    <style>
      .cls-1 {
        fill: #bfbfbf;
        fill-rule: evenodd;
        stroke-width: 0px;
      }
    </style>
  </defs>
  <g id="Primo_piano" data-name="Primo piano">
    <path class="cls-1" d="m297.65,41.98v6.62c0,2.16-1.37,6.12-6.55,8.06-.65.29-1.3.5-2.02.65v8.28c5.98-1.94,8.93-5.98,8.93-5.98.22,3.6,1.3,5.69,1.3,5.69h13.54c-2.23-1.37-2.81-4.46-2.81-10.37v-25.42c0-7.7-6.55-10.73-8.06-11.38-3.38-1.37-8.14-2.16-12.89-2.02v10.08c1.51-.07,3.17.07,4.46.36,2.38.65,3.82,1.94,4.1,4.54.29,2.52-1.15,3.74-3.1,4.25-1.58.36-2.81.5-5.47.86v8.42c2.38-.43,4.68-.86,6.12-1.37,2.16-.86,2.45-1.3,2.45-1.3Zm-8.57,15.34c-4.25.86-7.85-.65-8.42-4.46-.65-4.39,1.94-6.7,5.11-7.49,1.01-.29,2.16-.5,3.31-.72v-8.42c-.43.07-1.01.14-1.66.22-3.89.58-8.64.79-12.96,3.46-2.16,1.3-3.6,2.88-4.54,4.54v15.84c3.1,5.26,9.22,6.26,12.74,6.26,2.45,0,4.61-.36,6.41-.94v-8.28h0Zm0-41.18v10.08c-1.37.07-2.66.29-3.53.65-1.66.79-3.38,1.94-3.89,6.05h-11.74v-2.95c.65-3.02,2.23-7.63,6.26-10.37,3.24-2.23,8.06-3.31,12.89-3.46h0Zm-19.15,6.77l1.94-5.47h-1.94v5.47Zm0-5.47v5.47l-15.26,42.34-13.18.07-15.26-42.55v-5.33h12.1l10.01,35.42,10.22-35.42h11.38Zm0,12.53c-.36,1.73-.43,2.95-.43,2.95h.43v-2.95h0Zm0,14.47c-1.94,3.31-2.09,6.84-1.94,9,.14,2.81.86,5.04,1.94,6.84v-15.84h0Zm-43.7,7.92c1.73-4.46,1.94-8.78,1.94-10.66,0-4.03-.72-7.78-1.94-11.09v21.74Zm0-34.92v5.33l-1.94-5.33h1.94Zm0,13.18c-3.46-8.71-11.16-14.47-22.61-14.47v10.58h.07c3.02,0,5.76,1.01,7.63,2.81,2.74,2.59,3.89,7.06,3.89,12.02-.07,1.44-.29,5.83-1.94,9.07-1.66,3.02-4.75,5.33-9.58,5.33h-.07v10.58c10.22,0,16.7-4.54,20.23-9.72,1.01-1.44,1.73-2.95,2.38-4.46v-21.74Zm-22.61-14.47v10.58h-.07c-3.02,0-5.69,1.01-7.56,2.81-2.74,2.59-3.89,7.06-3.89,12.02,0,1.44.22,5.83,1.94,9.07,1.58,3.02,4.75,5.33,9.58,5.33h0v10.58h0c-10.22,0-16.78-4.54-20.3-9.72-3.96-5.83-4.25-12.6-4.25-15.12,0-14.69,8.78-25.56,24.55-25.56h0Zm-115.34,49.18v-11.16h2.16c8.06,0,11.3-3.24,11.3-8.93,0-6.77-5.69-8.35-9.29-8.35h-4.18v-10.94h1.22c7.78,0,10.73-2.52,10.73-7.27,0-5.9-5.4-6.84-8.78-6.84h-3.17V.65h5.26c8.42,0,13.46,3.1,16.34,6.55,2.81,3.53,4.18,9.14,2.74,14.83-.86,3.46-3.02,6.34-7.27,8.42,0,0,6.26,2.02,8.57,7.99,2.3,6.05,1.44,12.24-.86,16.49-2.38,4.32-5.18,6.34-7.63,7.7-2.37,1.44-7.7,2.66-16.2,2.66h-.94Zm45.07-47.88h12.02v7.27c1.8-3.24,6.05-8.78,14.69-8.57,0,0,6.84-.14,11.23,3.6,2.45,2.09,5.18,5.4,5.33,12.38.07,1.44,0,33.19,0,33.19h-12.6v-29.88c0-6.12-2.81-8.64-8.06-8.64s-10.01,3.46-10.01,10.8c0,.94,0,1.94-.07,2.95v24.77h-12.53V17.42h0ZM117.79,0h12.53v11.74h-12.53V0h0Zm0,17.42h12.53v47.88h-12.53V17.42ZM88.27.65v11.16h-13.46v14.11h13.46v10.94h-13.46v17.28h13.46v11.16H31.97v-2.88h29.09V3.53h-29.09V.65h56.3ZM31.97.65v2.88H2.88v58.9h29.09v2.88H0V.65h31.97Z"/>
  </g>
</svg>
