<?xml version="1.0" encoding="UTF-8"?>
<svg id="_Слой_2" data-name="Слой 2" xmlns="http://www.w3.org/2000/svg" viewBox="0 0 140.08 17.57">
  <defs>
    <style>
      .cls-1 {
        fill: #bfbfbf;
        stroke-width: 0px;
      }
    </style>
  </defs>
  <g id="Livello_1" data-name="Livello 1">
    <path class="cls-1" d="m91.6,17.56L99.12.01h2.38l7.5,17.55h-3.53l-1.66-3.88h-7l-1.66,3.88h-3.55Zm6.47-6.89h4.46l-2.23-5.19-2.23,5.19Z"/>
    <path class="cls-1" d="m3.29,8.79c-.06-3.17,2.46-5.79,5.63-5.85.07,0,.13,0,.2,0,1.89-.02,3.67.86,4.82,2.36l2.27-2C14.45,1.15,11.78-.07,9,.01,4.2-.16.18,3.59,0,8.38c0,.14,0,.27,0,.41-.05,4.79,3.79,8.72,8.58,8.78.14,0,.28,0,.42,0,2.76.07,5.41-1.13,7.17-3.26l-2.27-2c-1.14,1.51-2.93,2.38-4.82,2.37-3.18.02-5.77-2.53-5.79-5.71,0-.06,0-.11,0-.17Z"/>
    <path class="cls-1" d="m130,9.79v7.77h-3.39V.01h6.39c1.4-.09,2.78.38,3.84,1.3,1.98,1.87,2.08,4.99.21,6.97-.07.07-.14.14-.21.21-.5.46-1.11.8-1.76,1l5,8.05h-4l-4.65-7.77-1.43.02Zm2.81-3c.62.1,1.25-.1,1.7-.53.32-.37.5-.84.5-1.33,0-.5-.18-.98-.5-1.35-.45-.44-1.08-.64-1.7-.55h-2.81v3.75h2.81Z"/>
    <path class="cls-1" d="m37.15,3.01v3.77h5.39v3h-5.39v4.76h7.39v3h-10.78V.01h10.78v3h-7.39Z"/>
    <path class="cls-1" d="m64.1,12.65c1.09,1.16,2.57,1.87,4.16,2,1.24.13,2.35-.76,2.48-2,0-.05,0-.1.01-.15,0-2.19-3.17-2.46-5.46-3.8-1.48-.73-2.42-2.24-2.41-3.89C62.88,1.81,65.68.01,68.51.01c1.78-.04,3.53.53,4.95,1.61l-1.92,2.26c-.79-.59-1.75-.92-2.74-.94-1.24,0-2.63.53-2.63,1.85,0,2.75,7.87,1.9,7.87,7.65,0,3-2.7,5.12-5.78,5.12-2.3-.04-4.5-.95-6.16-2.55l2-2.36Z"/>
  </g>
</svg>
