<?xml version="1.0" encoding="UTF-8"?>
<svg id="_Слой_2" data-name="Слой 2" xmlns="http://www.w3.org/2000/svg" viewBox="0 0 679.74 125.64">
  <defs>
    <style>
      .cls-1 {
        stroke-width: 0px;
      }
    </style>
  </defs>
  <g id="_Слой_1-2" data-name="Слой 1">
    <path fill="#bfbfbf" class="cls-1" d="m142.34,79.77c0-15.59,10.53-27.64,25.31-27.64s23.59,11.64,23.59,26.23v4.05h-37.26c.91,9.11,6.38,14.68,14.18,14.68,5.97,0,10.73-3.04,12.35-8.5l10.43,3.95c-3.75,9.32-12.15,14.88-22.78,14.88-15.19,0-25.82-11.24-25.82-27.64h0Zm12.25-6.48h24.4c-.1-5.87-3.75-10.94-11.44-10.94-6.28,0-11.14,3.75-12.96,10.94Zm65.62,52.35c-12.25,0-20.86-5.16-24.2-15.49l11.34-4.05c1.62,5.97,6.18,9.72,12.86,9.72,8.2,0,13.77-4.05,13.77-13.77v-3.75c-2.83,3.75-8.2,6.68-14.99,6.68-14.58,0-23.29-11.85-23.29-26.43s8.71-26.43,23.29-26.43c6.68,0,12.15,2.94,14.99,6.68v-5.67h12.15v47.79c0,15.69-10.73,24.71-25.92,24.71h0Zm1.11-62.88c-8.4,0-13.37,5.87-13.37,15.8s4.96,15.8,13.37,15.8c7.59,0,12.86-5.57,12.86-15.09v-1.21c0-9.72-5.26-15.29-12.86-15.29h0Zm55.5,62.88c-12.25,0-20.86-5.16-24.2-15.49l11.34-4.05c1.62,5.97,6.18,9.72,12.86,9.72,8.2,0,13.77-4.05,13.77-13.77v-3.75c-2.83,3.75-8.2,6.68-14.99,6.68-14.58,0-23.29-11.85-23.29-26.43s8.71-26.43,23.29-26.43c6.68,0,12.15,2.94,14.99,6.68v-5.67h12.15v47.79c0,15.69-10.73,24.71-25.92,24.71h0Zm1.11-62.88c-8.4,0-13.37,5.87-13.37,15.8s4.96,15.8,13.37,15.8c7.59,0,12.86-5.57,12.86-15.09v-1.21c0-9.72-5.27-15.29-12.86-15.29h0Zm31.29,17.01c0-15.59,10.53-27.64,25.31-27.64s23.59,11.64,23.59,26.23v4.05h-37.26c.91,9.11,6.38,14.68,14.18,14.68,5.97,0,10.73-3.04,12.35-8.5l10.43,3.95c-3.75,9.32-12.15,14.88-22.78,14.88-15.19,0-25.82-11.24-25.82-27.64h0Zm12.25-6.48h24.4c-.1-5.87-3.75-10.94-11.44-10.94-6.28,0-11.14,3.75-12.96,10.94Zm72.91-8.1c-1.52-.2-2.73-.3-4.46-.3-7.7,0-13.57,4.96-13.57,13.47v27.95h-12.15v-53.16h12.15v7.9c2.33-4.96,7.8-8.2,14.58-8.2,1.42,0,2.53.1,3.44.2v12.15h.01Zm7.91,23.69c3.14,5.16,9.21,8.61,15.39,8.61,5.16,0,9.92-1.82,9.92-6.58s-4.46-5.06-12.86-6.78c-8.4-1.72-18.02-3.85-18.02-15.19,0-9.72,8.5-16.81,20.76-16.81,9.32,0,17.62,4.15,21.47,10.02l-8.2,7.39c-3.04-4.76-8.1-7.49-13.97-7.49-4.96,0-8.2,2.23-8.2,5.77,0,3.85,3.85,4.56,10.53,5.97,9.01,1.92,20.35,3.85,20.35,16,0,10.73-9.82,17.62-21.87,17.62-9.82,0-19.64-3.95-24.4-11.24l9.11-7.29h0Zm55.59,17.42h-12.15v-53.16h12.15v5.67c2.94-3.54,7.49-6.68,14.58-6.68,6.38,0,11.14,2.83,14.07,7.39,3.24-3.44,8.3-7.39,16.5-7.39,10.94,0,18.02,7.7,18.02,19.14v35.04h-12.15v-31.49c0-6.58-2.43-11.34-8.91-11.34-5.16,0-10.53,4.05-10.53,11.64v31.19h-12.15v-31.49c0-6.58-2.43-11.34-8.91-11.34-5.16,0-10.53,4.05-10.53,11.64v31.19h.01Zm68.66-14.78c0-10.13,7.59-14.58,17.82-16.71l14.68-3.04v-.91c0-5.06-2.63-8.2-9.11-8.2-5.77,0-8.81,2.63-10.23,7.8l-11.44-2.63c2.63-8.81,10.43-15.7,22.17-15.7,12.76,0,20.45,6.08,20.45,18.33v22.88c0,3.04,1.32,3.95,4.66,3.54v9.42c-8.81,1.01-13.47-.71-15.29-5.06-3.34,3.75-8.91,5.97-15.8,5.97-10.13,0-17.92-6.18-17.92-15.69h0Zm32.5-10.43l-11.44,2.43c-5.16,1.11-9.01,2.73-9.01,7.49,0,4.15,3.04,6.48,7.7,6.48,6.48,0,12.76-3.44,12.76-9.92v-6.48h-.01Zm22.08-27.95h12.15v5.67c3.04-3.54,7.8-6.68,14.68-6.68,11.14,0,17.82,7.7,17.82,19.14v35.04h-12.15v-31.49c0-6.58-2.63-11.34-9.32-11.34-5.47,0-11.04,4.05-11.04,11.64v31.19h-12.15v-53.16h.01Zm53.97,0h12.15v5.67c3.04-3.54,7.8-6.68,14.68-6.68,11.14,0,17.82,7.7,17.82,19.14v35.04h-12.15v-31.49c0-6.58-2.63-11.34-9.32-11.34-5.47,0-11.04,4.05-11.04,11.64v31.19h-12.15v-53.16h.01ZM0,0v53.16h55.84v8.93H0v13.51h55.84v8.92H0v13.27h55.84v8.55h49.71V0H0h0Z"/>
  </g>
</svg>
