<?xml version="1.0" encoding="UTF-8"?>
<svg id="_Слой_2" data-name="Слой 2" xmlns="http://www.w3.org/2000/svg" viewBox="0 0 1015.19 146.75">
  <defs>
    <style>
      .cls-1 {
        fill: #bfbfbf;
        stroke-width: 0px;
      }
    </style>
  </defs>
  <g id="svg11494">
    <g id="layer1">
      <path id="path5066" class="cls-1" d="m73.05,0C32.67,0,0,32.67,0,73.05s32.67,73.05,73.05,73.05,73.26-32.67,73.26-73.05c0-3.02-.06-6.1-.42-9.03l-.21-4.83h-81.03v29.81h43.45c-3.02,8.63-6.63,13.72-13.23,17.84-5.08,4.81-13.2,6.15-20.78,6.09-23.2,0-39.95-19.02-39.68-40.73.28-21.93,16.44-37.87,38.42-38.42,11.84-.3,20.7,3.03,28.34,10.92h40.1C130.16,18.52,103.3,0,73.05,0Zm253.38,0c-40.38,0-73.05,32.67-73.05,73.05s32.67,73.05,73.05,73.05c32.24,0,59.34-20.99,69.07-49.96,9.7,29,37.01,49.96,69.28,49.96,40.38,0,73.26-32.67,73.26-73.05,0-3.02.15-5.47-.21-8.4l-.42-5.46h-81.03v29.81h43.45c-3.02,8.63-6.63,13.72-13.23,17.84-5.08,4.81-13.2,6.15-20.78,6.09-23.2,0-39.95-19.02-39.68-40.73.28-21.93,16.44-37.87,38.42-38.42,11.84-.3,20.7,3.03,28.34,10.92h40.1C521.88,18.52,495.02,0,464.77,0c-35.63,0-65.31,25.45-71.79,59.2h-75.15v29.81h43.45c-3.02,8.63-6.63,13.72-13.23,17.84-5.08,4.81-13.2,6.15-20.78,6.09-23.2,0-39.95-19.02-39.68-40.73.28-21.93,16.65-37.87,38.63-38.42,11.84-.3,20.49,3.03,28.13,10.92h40.1C383.33,18.52,356.68,0,326.43,0Zm558.61,1.47v73.26c.11,20.14,3.71,39.11,17.63,53.53,25.57,23.87,58.24,21.98,83.34,9.24,23.57-15.09,29.27-37.14,29.18-62.77V1.47h-35.9v73.89c-.99,21.56-7.02,34.78-29.18,37.16-15.2-1.01-28.07-6.32-29.18-37.16V1.47h-35.9Zm-683.93.42l-75.78,142.54h40.1l10.5-21.62h48.07l9.87,21.41h41.77L201.11,1.89Zm429.72,0l-87.75.42v140.86l87.96-.21v-34.64h-49.96v-21.83h47.02v-28.76h-47.02v-22.04h49.75V1.89Zm195.86,0l-62.98,118.19V2.1h-37.58v67.81L638.38,2.31v141.07h36.74v-65.08l80.82,60.46,7.56,5.67h27.5l10.5-21.62h48.07l9.87,21.41h41.77L826.68,1.89ZM201.53,68.65l11.76,28.76h-25.61l13.86-28.76Zm625.57,0l11.76,28.76h-25.61l13.86-28.76Z"/>
    </g>
  </g>
</svg>
