<?xml version="1.0" encoding="UTF-8"?>
<svg id="_Слой_2" data-name="Слой 2" xmlns="http://www.w3.org/2000/svg" viewBox="0 0 200 76.61">
  <defs>
    <style>
      .cls-1 {
        fill: #bfbfbf;
        stroke-width: 0px;
      }
    </style>
  </defs>
  <g id="Ebene_1" data-name="Ebene 1">
    <polygon class="cls-1" points="65.24 76.61 37.99 31.31 64.37 .54 41.14 .54 18.78 27.47 18.78 .54 0 .54 0 76.61 18.78 76.61 18.78 52.78 25.29 45.41 43.09 76.61 65.24 76.61"/>
    <polygon class="cls-1" points="120.71 17.21 120.71 .54 68.17 .54 68.17 76.61 87.17 76.61 87.17 47.23 115.83 47.23 115.83 30.56 87.17 30.56 87.17 17.21 120.71 17.21"/>
    <polygon class="cls-1" points="178.02 17.21 178.02 .54 125.49 .54 125.49 76.61 144.48 76.61 144.48 47.23 173.14 47.23 173.14 30.56 144.48 30.56 144.48 17.21 178.02 17.21"/>
    <path class="cls-1" d="m200,9.03c.08-4.9-3.83-8.95-8.73-9.03-4.9-.08-8.95,3.83-9.03,8.73-.08,4.9,3.83,8.95,8.73,9.03.05,0,.1,0,.15,0,4.86.04,8.84-3.87,8.88-8.73Zm-1.42,0c0,4.11-3.35,7.45-7.46,7.44-4.11,0-7.45-3.35-7.44-7.46,0-4.11,3.33-7.43,7.44-7.44,4.09-.03,7.43,3.25,7.46,7.34,0,.04,0,.08,0,.12Zm-4.58,4.8l-1.42-4.32c.18-.1.34-.22.49-.36.51-.58.74-1.36.63-2.12.11-.79-.13-1.6-.66-2.2-.45-.42-1.06-.62-1.67-.58h-2.5v9.58h1.33v-4h1.15l1.27,4h1.38Zm-1.62-6.8c.07.46-.05.92-.32,1.3-.18.18-.43.27-.69.26h-1.17v-3.14h1.17c.26-.01.52.08.72.26.27.38.38.86.31,1.32h-.02Z"/>
  </g>
</svg>
