<?xml version="1.0" encoding="UTF-8"?>
<svg id="_Слой_2" data-name="Слой 2" xmlns="http://www.w3.org/2000/svg" viewBox="0 0 100 91.12">
  <defs>
    <style>
      .cls-1 {
        fill: #bfbfbf;
        stroke-width: 0px;
      }
    </style>
  </defs>
  <g id="Livello_1" data-name="Livello 1">
    <g>
      <path class="cls-1" d="m56.77,52.71c-4.52-2.16-3.39-8.04-3.39-12.12V14.94c0-.57,2.16-.65,2.67-.7,2.54-.3,5.69.15,7.9,1.51,5.46,3.36,2.97,10.7-1.06,14.08-2,1.68-4.62,2.38-7.18,2.42,4.29,1.46,8.53,1.1,12.52-1.04-.09,5.52-.9,11.02-2.95,16.17-1.91,4.81-5,9.74-9.74,12.16-7.33,3.74-14.11-.99-18.11-7.1,2.86.34,5.7.27,8.57.27,3.58,0,7.17,0,10.75,0h0Zm-24.76-23.12c.41-9.95,3.65-23.15,13.81-27.49,6.99-2.99,13.31,2.07,16.96,7.63-6.36-.75-12.92-.28-19.32-.28,4.53,2.14,3.39,8.06,3.39,12.12v25.65c0,.58-2.16.65-2.67.71-2.58.27-5.65-.15-7.9-1.51-5.54-3.32-2.88-10.71,1.06-14.09,1.98-1.7,4.63-2.36,7.18-2.42-4.28-1.47-8.54-1.1-12.52,1.04,0-.46.02-.91.02-1.36h0ZM50.07,0c-11.32.4-18.53,11.36-20.65,21.52-.56,2.69-.98,5.42-1.03,8.18-.02,1.36-.01,2.71.06,4.07.01.26-.85,1.12-1.03,1.36-.36.48-.7,1.03-.98,1.57-2.43,4.77-.58,10.06,3.68,13.1,1.03.74,2.15,1.29,3.35,1.71.91.31,1.77,2.26,2.4,3.04,1.61,1.99,3.55,3.92,5.8,5.17,5.06,2.81,10.64,3.23,15.86.56,9.72-4.95,13.85-17.21,14.28-27.42.05-1.24.06-2.49,0-3.73-.04-.85.14-.97.65-1.64.39-.52.75-1.05,1.07-1.62,1.21-2.08,1.87-4.68,1.17-7.05-.74-2.51-2.21-4.5-4.18-6.18-.9-.77-2.04-1.36-3.14-1.79-.68-.26-.89-.23-1.27-.83-.36-.58-.75-1.14-1.17-1.68C61.23,3.59,56.26.15,50.07,0h0Z"/>
      <g>
        <path class="cls-1" d="m88.76,88.11c-1.48-.21-2.78-.73-3.93-1.71-1.13-.96-1.85-2.2-2.36-3.57-.95-2.56-.35-5.97,1.49-8.01.99-1.09,2.12-1.91,3.55-2.33,1.35-.39,2.88-.4,4.2.13,1.38.55,2.51,1.38,3.42,2.57.9,1.18,1.38,2.59,1.57,4.05.36,2.77-.84,5.83-3.11,7.49-1.44,1.05-3.06,1.48-4.83,1.39h0Zm.24-17.97c-1.39.1-2.78.34-4.06.94-1.35.64-2.5,1.45-3.53,2.54-2.01,2.14-2.89,5.15-2.5,8.04.4,2.93,2.19,5.4,4.61,7.01,2.26,1.51,5.38,2.1,8.03,1.49,1.43-.33,2.74-.84,3.96-1.66,1.22-.82,2.17-1.86,2.99-3.07.79-1.17,1.25-2.63,1.41-4.02.16-1.38.08-2.92-.42-4.23-.54-1.41-1.25-2.65-2.28-3.76-.98-1.05-2.18-1.79-3.46-2.4-1.48-.7-3.15-.9-4.76-.9h0Z"/>
        <path class="cls-1" d="m73.79,70.59c.63.36,1.13.82,1.38,1.53.14.4.14.82.14,1.23v12.11c-1.79-2.27-3.58-4.54-5.38-6.81-1.95-2.47-3.89-4.93-5.84-7.4-.05-.06-.31-.66-.26-.66h-4.24c.63.36,1.14.82,1.38,1.53.13.38.14.78.14,1.18v14.28c0,1.06-.63,1.86-1.51,2.35h5.14c-.63-.35-1.13-.83-1.37-1.53-.13-.4-.14-.8-.14-1.21v-12.43c1.86,2.36,3.72,4.72,5.58,7.07,1.21,1.53,2.42,3.06,3.62,4.59.55.7,1.07,1.49,1.71,2.12.96.96,2.03,1.63,3.3,2.1v-17.69c0-1.06.62-1.87,1.5-2.37-1.71,0-3.43,0-5.14,0h0Z"/>
        <path class="cls-1" d="m51.37,70.14c-.32.05-.68.03-1.01.07-.39.04-.75.11-1.14.18-.65.12-1.31.33-1.92.6-1.37.59-2.53,1.39-3.59,2.44-.98.97-1.76,2.23-2.2,3.53-.48,1.42-.62,2.82-.49,4.31.25,2.9,2.11,5.42,4.43,7.05,1.11.78,2.49,1.33,3.82,1.58,1.45.27,2.93.28,4.4.24,1.49-.04,2.96-.27,4.42-.54.33-.06.66-.15.99-.23.15-.04.5-.02.5-.21v-7.93c0-.08.01-1.19-.01-1.19h-4.47c.63.36,1.13.82,1.38,1.53.18.53.14,1.11.14,1.66v4.14s.02.13,0,.15c-.07.09-.47.14-.58.17-1.39.42-2.81.51-4.25.45-1.44-.06-2.79-.6-3.98-1.37-2.33-1.5-3.81-4.55-3.46-7.32.18-1.39.59-2.82,1.47-3.94.87-1.12,1.95-2.11,3.28-2.65,1.4-.56,2.85-.8,4.35-.58,1.46.21,2.79.82,3.93,1.75.05.04.11.08.16.13v-3.5c0-.18-.71-.19-.86-.22-1.34-.23-2.75-.37-4.11-.33-.39,0-.78.02-1.18.03h0Z"/>
        <path class="cls-1" d="m39.37,70.5c-1.22.19-2.5.09-3.72.09h-6.82c.62.35,1.14.83,1.38,1.53.13.38.12.78.12,1.18v14.28c0,.76-.33,1.38-.85,1.92.12.12.34.44.52.44h10.7c.34,0,.32.04.43-.29.44-1.28.89-2.56,1.33-3.83-.9.96-2.15,1.8-3.51,1.91-1.4.11-2.81-.08-4.2-.25-.46-.06-.92-.11-1.38-.17-.17-.02-.11-.1-.11-.26v-6.49c0-.21.02-.15.24-.15.85,0,1.71-.03,2.56.01.76.04,1.46.39,2.04.86v-3.23c-.59.21-1.13.32-1.75.32h-2.84c-.21,0-.26.06-.26-.14v-5.16s-.02-.12,0-.14c.05-.06.47-.05.55-.06.7-.08,1.4-.12,2.1-.12.73,0,1.46.03,2.19.13.68.1,1.25.63,1.67,1.13,0,0,0,0,0,0v-3.63c-.14.04-.27.08-.4.13h0Z"/>
        <path class="cls-1" d="m13.29,70.59c.62.35,1.14.83,1.38,1.53.13.38.14.78.14,1.18v14.28c0,1.05-.63,1.86-1.51,2.35h5.94c-.62-.35-1.13-.83-1.36-1.53-.15-.46-.14-.94-.14-1.42v-14.2c0-.24,1.54-.28,1.76-.28.72,0,1.42.16,2.09.4,1.37.47,2.17,1.9,1.83,3.32-.25,1.04-.84,1.99-1.79,2.53-.52.29-1.04.54-1.6.74-.53.18-1.08.25-1.64.33,1.51,2.57,3.15,5.03,4.99,7.39.85,1.09,1.76,2.23,2.75,3.18.49.47,1.2.71,1.88.73.78.02,1.57,0,2.35,0h.93c-2.15-1.91-4.26-3.89-6.12-6.09-1.33-1.57-2.59-3.19-3.8-4.85,1.39-.21,2.83-.76,3.76-1.88.49-.59.88-1.19,1.16-1.9.26-.65.19-1.38.06-2.05-.14-.68-.59-1.3-1.01-1.82-.43-.54-1.04-.93-1.65-1.23-1.08-.53-2.45-.7-3.64-.7-2.24,0-4.49,0-6.73,0h0Z"/>
        <path class="cls-1" d="m0,70.59c.63.36,1.15.82,1.38,1.53.13.39.14.78.14,1.18v14.28c0,1.06-.62,1.85-1.51,2.35h5.95c-.63-.36-1.14-.82-1.38-1.53-.13-.38-.14-.77-.14-1.16v-14.28c0-.07.85-.18.97-.19.32-.04.65-.07.98-.06.73.04,1.44.15,2.13.4,1.27.46,2.24,1.69,2.05,3.11-.18,1.29-.69,2.42-1.67,3.3-.96.86-2.15,1.22-3.42,1.27,1.44.45,2.84.54,4.3.11,1.29-.38,2.59-1.31,3.33-2.44.39-.59.79-1.25.9-1.97.11-.77.05-1.49-.23-2.22-.52-1.36-1.63-2.33-2.9-2.96-.64-.31-1.39-.43-2.08-.56-.54-.11-1.13-.15-1.68-.15H1.71c-.57,0-1.14,0-1.71,0h0Z"/>
      </g>
    </g>
  </g>
</svg>
